Coordinates
version=1
nRows=14
nColumns=63
inDegrees=yes

Units are S.I. units (second, meters, Newtons, ...)
If the header above contains a line with 'inDegrees', this indicates whether rotational values are in degrees (yes) or radians (no).

endheader
time	pelvis_tilt	pelvis_list	pelvis_rotation	pelvis_tx	pelvis_ty	pelvis_tz	hip_flexion_r	hip_adduction_r	hip_rotation_r	knee_angle_r	knee_angle_r_beta	ankle_angle_r	subtalar_angle_r	mtp_angle_r	hip_flexion_l	hip_adduction_l	hip_rotation_l	knee_angle_l	knee_angle_l_beta	ankle_angle_l	subtalar_angle_l	mtp_angle_l	L5_S1_Flex_Ext	L5_S1_Lat_Bending	L5_S1_axial_rotation	L4_L5_Flex_Ext	L4_L5_Lat_Bending	L4_L5_axial_rotation	L3_L4_Flex_Ext	L3_L4_Lat_Bending	L3_L4_axial_rotation	L2_L3_Flex_Ext	L2_L3_Lat_Bending	L2_L3_axial_rotation	L1_L2_Flex_Ext	L1_L2_Lat_Bending	L1_L2_axial_rotation	L1_T12_Flex_Ext	L1_T12_Lat_Bending	L1_T12_axial_rotation	Abs_r3	Abs_r2	Abs_r1	Abs_t1	Abs_t2	neck_flexion	neck_bending	neck_rotation	arm_flex_r	arm_add_r	arm_rot_r	elbow_flex_r	pro_sup_r	wrist_flex_r	wrist_dev_r	arm_flex_l	arm_add_l	arm_rot_l	elbow_flex_l	pro_sup_l	wrist_flex_l	wrist_dev_l
6.152542	-4.985979	-4.823072	84.525637	0.319776	0.901403	0.509427	13.910554	-8.998309	2.291917	29.858721	0.521133	48.021381	9.980802	0.000000	6.959562	4.722635	-3.649441	18.472901	0.322413	43.626661	1.396796	0.000000	-0.092082	-0.680345	-0.288520	-0.171006	-0.904859	-0.306552	-0.151282	-1.654192	-0.306552	-0.105241	-1.654192	-0.252455	-0.085507	-1.387360	-0.234422	-0.052616	-1.053855	-0.216390	-0.657733	-7.696203	-1.604662	0.000000	0.000000	24.758996	0.936757	3.219064	1.459978	-13.045527	36.635738	27.269045	69.611660	-8.846576	-5.625420	10.236002	-11.595553	166.780061	0.722249	32.382648	-18.363431	-2.472385
6.169492	-4.766197	-4.850574	84.715300	0.319526	0.901712	0.509321	13.757516	-8.860779	1.798890	29.576196	0.516202	47.986528	9.986094	0.000000	6.995754	4.505264	-3.463014	18.576653	0.324224	43.674227	1.445271	0.000000	-0.087083	-0.645491	-0.301830	-0.161722	-0.858503	-0.320694	-0.143068	-1.569447	-0.320694	-0.099527	-1.569447	-0.264101	-0.080865	-1.316286	-0.245237	-0.049759	-0.999866	-0.226372	-0.622024	-7.301925	-1.678686	0.000000	0.000000	24.822299	0.949802	3.185661	1.373783	-13.219220	37.430881	27.337290	68.420837	-9.114164	-6.112702	10.132490	-11.499173	166.672894	0.688689	33.375607	-18.820476	-2.397235
6.186441	-4.570034	-4.879384	84.926781	0.319260	0.902004	0.509255	13.589790	-8.757498	1.268341	29.273322	0.510916	47.926863	10.080498	0.000000	7.040091	4.314909	-3.262732	18.678133	0.325995	43.696937	1.477850	0.000000	-0.081737	-0.614439	-0.320277	-0.151794	-0.817204	-0.340295	-0.134286	-1.493948	-0.340295	-0.093417	-1.493948	-0.280243	-0.075901	-1.252965	-0.260225	-0.046705	-0.951766	-0.240208	-0.583841	-6.950660	-1.781287	0.000000	0.000000	24.893795	0.979001	3.107528	1.323038	-13.387956	38.170977	27.408880	67.600190	-9.408798	-6.517368	10.007444	-11.419693	166.514375	0.661494	33.634664	-19.206736	-2.520307
6.203390	-4.400958	-4.903552	85.111905	0.319025	0.902287	0.509211	13.412889	-8.683336	0.748298	28.951904	0.505306	47.845605	10.264958	0.000000	7.078452	4.149412	-3.118113	18.763011	0.327476	43.697326	1.523016	0.000000	-0.075868	-0.587267	-0.338433	-0.140894	-0.781065	-0.359585	-0.124643	-1.427881	-0.359585	-0.086709	-1.427881	-0.296129	-0.070451	-1.197555	-0.274977	-0.043351	-0.909677	-0.253825	-0.541916	-6.643284	-1.882264	0.000000	0.000000	24.956249	1.016320	2.990792	1.336142	-13.555290	38.950696	27.439708	67.062675	-9.727410	-6.887005	9.876113	-11.349708	166.149699	0.654140	33.348827	-19.435990	-2.815110
6.220339	-4.251712	-4.923953	85.297162	0.318771	0.902559	0.509139	13.210789	-8.635794	0.219301	28.600442	0.499172	47.755007	10.518560	0.000000	7.105767	4.017353	-2.909338	18.829769	0.328641	43.667555	1.479158	0.000000	-0.069531	-0.561889	-0.360200	-0.129127	-0.747313	-0.382712	-0.114233	-1.366178	-0.382712	-0.079468	-1.366178	-0.315175	-0.064567	-1.145805	-0.292662	-0.039730	-0.870366	-0.270150	-0.496656	-6.356204	-2.003324	0.000000	0.000000	25.012778	1.042318	2.877242	1.337192	-13.689742	39.377087	27.500495	67.114055	-9.960136	-7.083806	9.757187	-11.268825	165.753468	0.675220	32.520914	-19.510407	-3.190803
6.237288	-4.120270	-4.937528	85.445418	0.318559	0.902824	0.509011	12.990400	-8.601370	-0.277781	28.224418	0.492609	47.655975	10.827340	0.000000	7.112567	3.905108	-2.723756	18.871004	0.329361	43.626878	1.425963	0.000000	-0.062216	-0.538126	-0.384520	-0.115541	-0.715708	-0.408552	-0.102215	-1.308400	-0.408552	-0.071107	-1.308400	-0.336455	-0.057774	-1.097347	-0.312422	-0.035550	-0.833557	-0.288390	-0.444402	-6.087390	-2.138584	0.000000	0.000000	25.065843	1.086002	2.817981	1.376447	-13.811855	39.720476	27.545270	67.429737	-10.131082	-7.178796	9.641666	-11.179574	165.174184	0.726447	31.437623	-19.416410	-3.646840
6.254237	-4.017322	-4.935162	85.536483	0.318427	0.903092	0.508820	12.752250	-8.588083	-0.724641	27.833645	0.485789	47.561002	11.175584	0.000000	7.079121	3.823049	-2.572425	18.867914	0.329307	43.573965	1.360382	0.000000	-0.055789	-0.517485	-0.404294	-0.103606	-0.688255	-0.429562	-0.091656	-1.258214	-0.429562	-0.063762	-1.258214	-0.353757	-0.051806	-1.055256	-0.328488	-0.031878	-0.801585	-0.303220	-0.398498	-5.853897	-2.248559	0.000000	0.000000	25.126738	1.151397	2.796571	1.408538	-13.885897	39.781280	27.591408	68.151677	-10.254381	-7.167759	9.544389	-11.085806	164.625838	0.808121	29.977455	-19.162684	-4.151097
6.271186	-3.928626	-4.925539	85.602989	0.318344	0.903358	0.508582	12.500957	-8.581094	-1.129362	27.433768	0.478810	47.460417	11.536697	0.000000	7.021777	3.760303	-2.397952	18.838862	0.328800	43.507576	1.260875	0.000000	-0.049514	-0.498647	-0.426352	-0.091952	-0.663201	-0.452999	-0.081346	-1.212410	-0.452999	-0.056589	-1.212410	-0.373058	-0.045979	-1.016841	-0.346411	-0.028292	-0.772404	-0.319764	-0.353673	-5.640795	-2.371244	0.000000	0.000000	25.202580	1.200804	2.775716	1.463421	-13.937771	39.739930	27.618189	69.024994	-10.289556	-7.092165	9.457564	-10.985992	164.125671	0.905241	28.343454	-18.766851	-4.655752
6.288136	-3.892330	-4.890026	85.573896	0.318387	0.903623	0.508283	12.251569	-8.616742	-1.446005	27.053571	0.472174	47.385027	11.943375	0.000000	6.910279	3.749892	-2.287830	18.755565	0.327346	43.415978	1.182766	0.000000	-0.044658	-0.486494	-0.435747	-0.082934	-0.647036	-0.462981	-0.073368	-1.182861	-0.462981	-0.051039	-1.182861	-0.381279	-0.041469	-0.992058	-0.354045	-0.025517	-0.753579	-0.326810	-0.318984	-5.503313	-2.423495	0.000000	0.000000	25.308186	1.254790	2.721826	1.491203	-13.927980	39.381803	27.659859	70.372839	-10.333902	-6.909714	9.373296	-10.897022	163.686345	1.016157	26.396627	-18.252418	-5.185607
6.305085	-3.863928	-4.856092	85.524438	0.318485	0.903859	0.507939	12.003743	-8.647177	-1.707720	26.679988	0.465654	47.310833	12.294208	0.000000	6.786175	3.741978	-2.206229	18.656098	0.325610	43.332901	1.160627	0.000000	-0.038670	-0.475587	-0.438489	-0.071814	-0.632531	-0.465894	-0.063531	-1.156343	-0.465894	-0.044196	-1.156343	-0.383678	-0.035909	-0.969818	-0.356272	-0.022096	-0.736685	-0.328866	-0.276214	-5.379939	-2.438742	0.000000	0.000000	25.430124	1.335838	2.677494	1.441844	-13.863165	38.577061	27.737833	72.113476	-10.345155	-6.673932	9.289898	-10.805343	163.455604	1.133868	24.157259	-17.789535	-5.725655
6.322034	-3.847869	-4.800622	85.447460	0.318651	0.904108	0.507586	11.742452	-8.670253	-1.869508	26.322847	0.459420	47.222201	12.553767	0.000000	6.625047	3.746667	-2.132046	18.529824	0.323406	43.234939	1.157324	0.000000	-0.034985	-0.467749	-0.436885	-0.064971	-0.622106	-0.464190	-0.057477	-1.137285	-0.464190	-0.039984	-1.137285	-0.382274	-0.032487	-0.953834	-0.354969	-0.019990	-0.724544	-0.327663	-0.249894	-5.291273	-2.429821	0.000000	0.000000	25.567080	1.453610	2.605872	1.427571	-13.810351	37.959094	27.808255	73.555021	-10.421864	-6.508958	9.208313	-10.715661	163.157888	1.258129	22.003348	-17.397456	-6.198415
6.338983	-3.856138	-4.732689	85.354194	0.318871	0.904361	0.507257	11.483386	-8.695547	-1.918156	25.992151	0.453649	47.118611	12.720848	0.000000	6.445356	3.770308	-2.098740	18.386368	0.320903	43.127991	1.208927	0.000000	-0.032361	-0.464186	-0.434162	-0.060097	-0.617367	-0.461297	-0.053165	-1.128621	-0.461297	-0.036985	-1.128621	-0.379891	-0.030050	-0.946568	-0.352756	-0.018491	-0.719024	-0.325621	-0.231149	-5.250962	-2.414676	0.000000	0.000000	25.707016	1.638349	2.547702	1.444152	-13.760227	37.406996	27.867787	74.840985	-10.517981	-6.405234	9.123825	-10.642423	162.605989	1.384829	20.037128	-17.077956	-6.658534
6.355932	-3.881819	-4.658351	85.245444	0.319155	0.904614	0.506951	11.228140	-8.704791	-1.812959	25.678699	0.448178	46.996359	12.773882	0.000000	6.259129	3.809470	-2.069987	18.235963	0.318278	43.004173	1.243458	0.000000	-0.030354	-0.463858	-0.429361	-0.056371	-0.616931	-0.456196	-0.049869	-1.127824	-0.456196	-0.034692	-1.127824	-0.375691	-0.028187	-0.945899	-0.348856	-0.017344	-0.718516	-0.322021	-0.216816	-5.247253	-2.387976	0.000000	0.000000	25.829600	1.906877	2.536154	1.465436	-13.715705	36.842406	27.961387	75.938247	-10.594354	-6.310046	9.042657	-10.584641	161.986988	1.512311	18.058812	-16.810628	-7.093101
6.372881	-3.929708	-4.585381	85.147562	0.319456	0.904858	0.506682	10.983135	-8.720204	-1.617829	25.388644	0.443115	46.869286	12.786717	0.000000	6.081238	3.867967	-2.048738	18.089364	0.315719	42.873965	1.279233	0.000000	-0.028682	-0.466848	-0.425992	-0.053265	-0.620907	-0.452616	-0.047122	-1.135093	-0.452616	-0.032781	-1.135093	-0.372743	-0.026634	-0.951996	-0.346118	-0.016389	-0.723147	-0.319494	-0.204873	-5.281073	-2.369238	0.000000	0.000000	25.930387	2.241098	2.553284	1.463164	-13.657898	36.094713	28.116501	76.957771	-10.596803	-6.159650	8.974833	-10.544693	161.377724	1.628256	16.033069	-16.572245	-7.495536
